<!-- Original Tex source: -->
<!--
\begin{tikzpicture}[>=Stealth]
\graph[binary tree layout, level distance = 1cm, sibling distance = 3cm]{
    "MultiplicativeExpr {"}\%{"}" -> {
        "MultiplicativeExpr {"}*{"}" -> {
            "MultiplicativeExpr {"}{*}{"}" -> { 1, 2 },
            3
        },
        4
    }
};
\end{tikzpicture}
-->
<svg height="122.489" viewBox="-48.864 -48.839 188.232 91.866" width="250.976" xmlns="http://www.w3.org/2000/svg" xmlns:xlink="http://www.w3.org/1999/xlink"><defs><path d="M1.973-5.147c0-.314-.26-.43-.413-.43-.125 0-.448.08-.421.511l.116 1.793c.018.224.099.332.305.332.18 0 .287-.108.296-.323l.117-1.883zm1.587 0c0-.314-.26-.43-.413-.43-.125 0-.448.08-.421.511l.116 1.793c.018.224.099.332.305.332.18 0 .287-.108.296-.323l.117-1.883z" id="n"/><path d="M3.882-5.685a.468.468 0 0 0 .054-.197c0-.206-.17-.34-.332-.34-.233 0-.304.179-.34.277L.807.215C.789.27.762.323.762.403c0 .189.153.341.34.341.225 0 .288-.18.333-.278l2.447-6.15zm.503 5.237c0-.655-.323-1.193-.78-1.193-.467 0-.78.538-.78 1.193s.322 1.192.78 1.192c.466 0 .78-.538.78-1.192zm-.78.6c-.072 0-.243-.206-.243-.6s.17-.601.242-.601.243.206.243.6-.17.601-.243.601zM1.873-5.02c0-.673-.323-1.202-.78-1.202-.466 0-.78.556-.78 1.193 0 .672.323 1.201.78 1.201.466 0 .78-.556.78-1.192zm-.78.6c-.08 0-.242-.215-.242-.6 0-.404.17-.61.242-.61.08 0 .242.215.242.6 0 .404-.17.61-.242.61z" id="o"/><path d="M2.636-3.237c.018-.224.027-.807.027-1.049 0-.072 0-.385-.314-.385s-.314.313-.314.385c0 .242.01.825.027 1.05l-.923-.548c-.117-.063-.135-.08-.215-.08a.312.312 0 0 0-.314.313c0 .108.045.216.206.305l.95.502-.95.511c-.206.108-.206.26-.206.305 0 .17.134.314.314.314.08 0 .125-.027.17-.054l.968-.574c-.018.225-.027.807-.027 1.05 0 .071 0 .385.314.385s.314-.314.314-.386c0-.242-.009-.824-.027-1.049.17.099.583.341.825.494.215.134.233.134.314.134.18 0 .314-.143.314-.314a.297.297 0 0 0-.18-.278 34.43 34.43 0 0 0-.977-.529l.95-.51c.207-.108.207-.252.207-.306a.312.312 0 0 0-.314-.314c-.08 0-.126.027-.17.054l-.969.574z" id="p"/><path d="M2.815-5.2c0-.135 0-.377-.286-.377-.153 0-.225.08-.278.197-.278.628-.637.87-.996.897-.134.009-.331.027-.331.296 0 .179.098.287.313.287.359 0 .709-.189.915-.368v3.685h-.798c-.144 0-.377 0-.377.296C.977 0 1.22 0 1.354 0h2.26c.134 0 .376 0 .376-.287 0-.296-.233-.296-.377-.296h-.798V-5.2z" id="q"/><path d="M.6-.556C.53-.493.467-.43.467-.296.466 0 .708 0 .852 0h3.004c.295 0 .376-.072.376-.377v-.26c0-.17 0-.376-.332-.376s-.331.188-.331.43H1.55C2.026-.995 3.031-1.793 3.255-2c.332-.322.977-.923.977-1.81 0-1.068-.888-1.767-2-1.767-1.048 0-1.766.717-1.766 1.48a.42.42 0 0 0 .422.448c.179 0 .412-.153.412-.422 0-.188-.072-.25-.116-.296.152-.394.547-.627 1.004-.627.717 0 1.38.412 1.38 1.183 0 .628-.484 1.166-.842 1.462L.6-.556z" id="r"/><path d="M2.322-2.663c.924 0 1.318.628 1.318 1.085 0 .565-.51 1.094-1.282 1.094-.233 0-.914-.036-1.228-.466 0-.01.018-.018.018-.027.053-.081.053-.099.071-.189.01-.009.01-.027.01-.062a.411.411 0 0 0-.413-.413c-.215 0-.421.135-.421.44 0 .789.842 1.3 1.963 1.3 1.166 0 1.946-.816 1.946-1.668 0-.735-.556-1.237-.977-1.426.654-.466.717-1.058.717-1.3 0-.69-.682-1.282-1.695-1.282-1.103 0-1.694.44-1.694 1.049 0 .269.197.43.421.43s.412-.179.412-.412c0-.08-.026-.18-.071-.242.296-.242.878-.242.932-.242.628 0 1.031.331 1.031.7 0 .25-.116.618-.466.842-.233.152-.394.161-.816.188-.35.018-.529.036-.529.305 0 .296.242.296.377.296h.376z" id="s"/><path d="M.34-2.215c-.08.117-.08.135-.08.323 0 .26.036.386.377.386H2.86v.923h-.538c-.125 0-.376 0-.376.287 0 .296.242.296.376.296h1.614c.126 0 .377 0 .377-.287 0-.296-.242-.296-.377-.296h-.538v-.923h.664c.125 0 .376 0 .376-.287 0-.296-.242-.296-.376-.296h-.664v-3.13c0-.304-.071-.385-.385-.385h-.26c-.224 0-.278.009-.395.197L.341-2.215zm.593.126L2.86-5.147v3.058H.933z" id="t"/><path d="M1.506-2.546h1.13c0 .34 0 .51.332.51s.332-.206.332-.376v-.852c0-.17 0-.376-.332-.376s-.332.17-.332.51h-1.13v-1.766H3.64v.485c0 .17 0 .376.332.376s.332-.206.332-.376v-.69c0-.297-.072-.377-.377-.377H.583c-.135 0-.386 0-.386.286 0 .296.242.296.386.296h.26v4.313h-.26c-.135 0-.386 0-.386.287C.197 0 .44 0 .583 0h3.542C4.42 0 4.5-.072 4.5-.377v-.833c0-.17 0-.377-.332-.377s-.331.206-.331.377v.627H1.506v-1.963z" id="k"/><path d="M2.645-3.524a9.488 9.488 0 0 0-.287 1.004H2.35a7.597 7.597 0 0 0-.242-.833l-.583-1.785c-.09-.26-.17-.34-.493-.34h-.52c-.134 0-.385 0-.385.286 0 .296.215.296.484.296v4.313c-.27 0-.484 0-.484.296C.126 0 .376 0 .51 0h.735c.135 0 .386 0 .386-.287 0-.296-.215-.296-.484-.296V-4.77h.009c.044.215.125.475.206.735l.61 1.865c.035.108.107.34.376.34s.34-.232.377-.34L3.29-3.9c0-.01.206-.655.25-.87h.01v4.187c-.27 0-.485 0-.485.296 0 .287.252.287.386.287h.735c.135 0 .386 0 .386-.287 0-.296-.215-.296-.484-.296v-4.313c.269 0 .484 0 .484-.296 0-.286-.251-.286-.386-.286h-.52c-.314 0-.403.071-.493.34l-.529 1.614z" id="a"/><path d="M3.82-2.537c0-.7-.538-1.4-1.794-1.4-.412 0-1.318 0-1.318.673 0 .26.198.422.413.422.143 0 .421-.054.421-.485.251-.026.413-.026.493-.026.709 0 1.121.295 1.121.842-1.497.018-2.68.44-2.68 1.318 0 .682.618 1.238 1.488 1.238.107 0 .789 0 1.273-.35.215.305.7.305.995.305.251 0 .466 0 .466-.296 0-.287-.242-.287-.385-.287-.135 0-.323 0-.493-.063v-1.891zm-.664 1.273c0 .206 0 .394-.358.574-.323.152-.727.152-.763.152-.529 0-.896-.296-.896-.655 0-.439.905-.744 2.017-.753v.682z" id="h"/><path d="M4.178-.977c0-.189-.134-.27-.331-.27-.117 0-.243 0-.323.198-.063.134-.215.511-.843.511-.762 0-1.38-.619-1.38-1.399 0-.457.277-1.416 1.425-1.416.152 0 .278.009.314.009.179.017.188.026.197.107a.41.41 0 0 0 .412.395.41.41 0 0 0 .422-.422c0-.672-.915-.672-1.336-.672-1.551 0-2.098 1.21-2.098 2 0 1.093.878 1.98 1.981 1.98 1.282 0 1.56-.887 1.56-1.021z" id="g"/><path d="M3.784-1.695c.18 0 .376 0 .376-.34 0-1.04-.582-1.901-1.74-1.901-1.093 0-1.945.914-1.945 1.981 0 1.112.933 2 2.08 2C3.757.045 4.16-.762 4.16-.977c0-.189-.134-.27-.331-.27-.126 0-.242 0-.323.198-.215.511-.79.511-.888.511-.52 0-1.273-.305-1.452-1.157h2.618zm-2.61-.573c.171-.736.736-1.085 1.247-1.085.628 0 .995.412 1.058 1.085H1.175z" id="j"/><path d="M2.798-5.03c0-.251-.207-.457-.458-.457s-.457.206-.457.457.206.457.457.457.458-.206.458-.457zM1.12-3.865c-.135 0-.386 0-.386.287 0 .296.242.296.386.296h1.013v2.7H1.04c-.125 0-.376 0-.376.286C.664 0 .906 0 1.04 0H3.74c.126 0 .386 0 .386-.287 0-.296-.252-.296-.386-.296h-.941v-2.905c0-.296-.072-.377-.377-.377h-1.3z" id="e"/><path d="M2.681-5.102c0-.296-.072-.376-.377-.376H.852c-.135 0-.377 0-.377.286 0 .296.233.296.377.296h1.165v4.313H.852c-.135 0-.377 0-.377.287C.475 0 .708 0 .852 0h2.995c.134 0 .376 0 .376-.287 0-.296-.233-.296-.376-.296H2.68v-4.519z" id="c"/><path d="M1.9 1.99c.126 0 .377 0 .377-.286 0-.296-.242-.296-.376-.296h-.395V-.386c.278.27.628.43 1.023.43.995 0 1.865-.851 1.865-1.98 0-1.068-.772-1.973-1.776-1.973a1.72 1.72 0 0 0-1.112.412c0-.323-.116-.368-.376-.368H.448c-.125 0-.376 0-.376.287 0 .296.242.296.376.296h.395v4.69H.448c-.125 0-.376 0-.376.287 0 .296.242.296.376.296h1.453zm-.394-4.348c0-.53.53-.969 1.076-.969.619 0 1.148.61 1.148 1.39 0 .798-.583 1.399-1.237 1.399-.637 0-.987-.726-.987-1.193v-.627z" id="f"/><path d="M2.008-1.65c0-.905.601-1.677 1.57-1.677.026.332.278.395.394.395a.389.389 0 0 0 .395-.403c0-.17-.108-.574-.852-.574-.511 0-1.076.215-1.507.699v-.278c0-.296-.071-.377-.376-.377H.628c-.135 0-.386 0-.386.287 0 .296.242.296.386.296h.717v2.7H.628c-.135 0-.386 0-.386.286C.242 0 .484 0 .628 0h2.376c.125 0 .385 0 .385-.287 0-.296-.25-.296-.385-.296h-.996V-1.65z" id="m"/><path d="M2.017-3.282h1.426c.126 0 .377 0 .377-.287 0-.296-.242-.296-.377-.296H2.017v-.726c0-.17 0-.376-.331-.376s-.332.206-.332.385v.717H.61c-.144 0-.386 0-.386.296 0 .287.242.287.377.287h.753v2.08c0 .933.645 1.247 1.282 1.247.771 0 1.39-.538 1.39-1.202 0-.313-.233-.313-.332-.313-.143 0-.323.017-.332.304-.018.43-.376.628-.681.628-.664 0-.664-.484-.664-.7v-2.044z" id="d"/><path d="M3.856-3.488c0-.296-.072-.377-.377-.377h-.681c-.126 0-.377 0-.377.287 0 .296.242.296.377.296h.394v1.883c0 .753-.69.861-.995.861-.69 0-.69-.26-.69-.538v-2.412c0-.296-.072-.377-.377-.377H.448c-.125 0-.376 0-.376.287 0 .296.242.296.376.296h.395v2.25c0 .844.6 1.077 1.291 1.077.314 0 .672-.045 1.058-.314.036.269.215.269.377.269h.681c.126 0 .377 0 .377-.287 0-.296-.242-.296-.377-.296h-.394v-2.905z" id="b"/><path d="M3.838-3.282h.26c.134 0 .385 0 .385-.287 0-.296-.242-.296-.385-.296H3.04c-.126 0-.386 0-.386.287 0 .296.251.296.386.296h.233L2.349-.484l-.923-2.798h.233c.125 0 .385 0 .385-.287 0-.296-.25-.296-.385-.296H.6c-.135 0-.386 0-.386.287 0 .296.242.296.386.296h.26l.986 2.995c.108.332.314.332.502.332.17 0 .395 0 .502-.323l.987-3.004z" id="i"/><path d="M2.591-1.99l.978-1.292h.358c.135 0 .377 0 .377-.287 0-.296-.233-.296-.377-.296H2.86c-.134 0-.376 0-.376.287 0 .296.215.296.439.296l-.6.834-.62-.834c.216 0 .431 0 .431-.296 0-.287-.242-.287-.377-.287H.69c-.134 0-.376 0-.376.287 0 .296.233.296.376.296h.36L2.061-1.99.995-.583H.637c-.144 0-.377 0-.377.296C.26 0 .502 0 .637 0h1.067c.134 0 .376 0 .376-.287 0-.296-.206-.296-.466-.296l.708-1.04.736 1.04c-.234 0-.449 0-.449.296 0 .287.242.287.377.287h1.067c.134 0 .376 0 .376-.287 0-.296-.233-.296-.376-.296h-.359L2.591-1.99z" id="l"/></defs><path d="M-7.691 19.016l-23.665 15.773" fill="none" stroke="#000" stroke-miterlimit="10.037" stroke-width=".4"/><path d="M-33.438 36.18l3.727-.867-1.727-.47.23-1.777z"/><path d="M-33.438 36.18l3.727-.867-1.727-.47.23-1.777zM13.527 19.016l23.66 15.773" fill="none" stroke="#000" stroke-miterlimit="10.037" stroke-width=".401"/><path d="M39.273 36.18l-2.234-3.114.234 1.778-1.73.468z"/><path d="M39.273 36.18l-2.234-3.114.234 1.778-1.73.468zM34.828-9.332L16.082 3.164" fill="none" stroke="#000" stroke-miterlimit="10.037" stroke-width=".401"/><path d="M14 4.55l3.73-.862-1.73-.47.23-1.777z"/><path d="M14 4.55l3.73-.862-1.73-.47.23-1.777zM56.047-9.332L79.71 6.441" fill="none" stroke="#000" stroke-miterlimit="10.037" stroke-width=".401"/><path d="M81.793 7.832l-2.23-3.11.23 1.774-1.73.473z"/><path d="M81.793 7.832l-2.23-3.11.23 1.774-1.73.473zM76.79-37.305L58.604-25.184" fill="none" stroke="#000" stroke-miterlimit="10.037" stroke-width=".401"/><path d="M56.52-23.793l3.73-.867-1.73-.469.234-1.777z"/><path d="M56.52-23.793l3.73-.867-1.73-.469.234-1.777zM99.129-37.305l23.102 15.399" fill="none" stroke="#000" stroke-miterlimit="10.037" stroke-width=".401"/><path d="M124.313-20.516l-2.231-3.109.231 1.777-1.731.47z"/><path d="M124.313-20.516l-2.231-3.109.231 1.777-1.731.47z" fill="none" stroke="#000" stroke-miterlimit="10.037" stroke-width=".401"/><g transform="translate(-51.78 2.117)"><use x="87.957" xlink:href="#a" y="-44.753"/><use x="92.647" xlink:href="#b" y="-44.753"/><use x="97.337" xlink:href="#c" y="-44.753"/><use x="102.027" xlink:href="#d" y="-44.753"/><use x="106.716" xlink:href="#e" y="-44.753"/><use x="111.406" xlink:href="#f" y="-44.753"/><use x="116.096" xlink:href="#c" y="-44.753"/><use x="120.785" xlink:href="#e" y="-44.753"/><use x="125.475" xlink:href="#g" y="-44.753"/><use x="130.165" xlink:href="#h" y="-44.753"/><use x="134.854" xlink:href="#d" y="-44.753"/><use x="139.544" xlink:href="#e" y="-44.753"/><use x="144.234" xlink:href="#i" y="-44.753"/><use x="148.924" xlink:href="#j" y="-44.753"/><use x="153.613" xlink:href="#k" y="-44.753"/><use x="158.303" xlink:href="#l" y="-44.753"/><use x="162.993" xlink:href="#f" y="-44.753"/><use x="167.682" xlink:href="#m" y="-44.753"/><use x="177.079" xlink:href="#n" y="-44.753"/><use x="181.769" xlink:href="#o" y="-44.753"/><use x="186.459" xlink:href="#n" y="-44.753"/></g><g transform="translate(-94.301 30.09)"><use x="87.957" xlink:href="#a" y="-44.753"/><use x="92.647" xlink:href="#b" y="-44.753"/><use x="97.337" xlink:href="#c" y="-44.753"/><use x="102.027" xlink:href="#d" y="-44.753"/><use x="106.716" xlink:href="#e" y="-44.753"/><use x="111.406" xlink:href="#f" y="-44.753"/><use x="116.096" xlink:href="#c" y="-44.753"/><use x="120.785" xlink:href="#e" y="-44.753"/><use x="125.475" xlink:href="#g" y="-44.753"/><use x="130.165" xlink:href="#h" y="-44.753"/><use x="134.854" xlink:href="#d" y="-44.753"/><use x="139.544" xlink:href="#e" y="-44.753"/><use x="144.234" xlink:href="#i" y="-44.753"/><use x="148.924" xlink:href="#j" y="-44.753"/><use x="153.613" xlink:href="#k" y="-44.753"/><use x="158.303" xlink:href="#l" y="-44.753"/><use x="162.993" xlink:href="#f" y="-44.753"/><use x="167.682" xlink:href="#m" y="-44.753"/><use x="177.079" xlink:href="#n" y="-44.753"/><use x="181.769" xlink:href="#p" y="-44.753"/><use x="186.459" xlink:href="#n" y="-44.753"/></g><g transform="translate(-136.821 58.437)"><use x="87.957" xlink:href="#a" y="-44.753"/><use x="92.647" xlink:href="#b" y="-44.753"/><use x="97.337" xlink:href="#c" y="-44.753"/><use x="102.027" xlink:href="#d" y="-44.753"/><use x="106.716" xlink:href="#e" y="-44.753"/><use x="111.406" xlink:href="#f" y="-44.753"/><use x="116.096" xlink:href="#c" y="-44.753"/><use x="120.785" xlink:href="#e" y="-44.753"/><use x="125.475" xlink:href="#g" y="-44.753"/><use x="130.165" xlink:href="#h" y="-44.753"/><use x="134.854" xlink:href="#d" y="-44.753"/><use x="139.544" xlink:href="#e" y="-44.753"/><use x="144.234" xlink:href="#i" y="-44.753"/><use x="148.924" xlink:href="#j" y="-44.753"/><use x="153.613" xlink:href="#k" y="-44.753"/><use x="158.303" xlink:href="#l" y="-44.753"/><use x="162.993" xlink:href="#f" y="-44.753"/><use x="167.682" xlink:href="#m" y="-44.753"/><use x="177.079" xlink:href="#n" y="-44.753"/><use x="181.769" xlink:href="#p" y="-44.753"/><use x="186.459" xlink:href="#n" y="-44.753"/></g><use x="87.957" xlink:href="#q" y="-44.753" transform="translate(-129.914 87.78)"/><use x="87.957" xlink:href="#r" y="-44.753" transform="translate(-44.874 87.78)"/><use x="87.957" xlink:href="#s" y="-44.753" transform="translate(-2.354 59.433)"/><use x="87.957" xlink:href="#t" y="-44.753" transform="translate(40.167 31.087)"/></svg>
